<?xml version="1.0" encoding="UTF-8"?>
<!DOCTYPE svg PUBLIC "-//W3C//DTD SVG 1.1//EN" "http://www.w3.org/Graphics/SVG/1.1/DTD/svg11.dtd">
<!-- Creator: CorelDRAW 2021 (64 Bit) -->
<svg xmlns="http://www.w3.org/2000/svg" xml:space="preserve" width="20.647mm" height="14.3932mm" version="1.1" style="shape-rendering:geometricPrecision; text-rendering:geometricPrecision; image-rendering:optimizeQuality; fill-rule:evenodd; clip-rule:evenodd"
viewBox="0 0 195.67 136.4"
 xmlns:xlink="http://www.w3.org/1999/xlink"
 xmlns:xodm="http://www.corel.com/coreldraw/odm/2003">
 <defs>
  <style type="text/css">
   <![CDATA[
    .fil1 {fill:#FEFEFE;fill-rule:nonzero}
    .fil0 {fill:#00AFEF;fill-rule:nonzero}
   ]]>
  </style>
 </defs>
 <g id="Camada_x0020_1">
  <metadata id="CorelCorpID_0Corel-Layer"/>
  <g id="_2251150738176">
   <path class="fil0" d="M195.67 135.91l0 0.37 -20.74 0.06c-16.09,-16.09 -32.74,-33.48 -48.83,-49.57 5.45,0.33 12.02,-0.63 18.19,-3.03 15.96,15.94 35.56,36.12 51.38,52.18z"/>
   <path class="fil1" d="M-0 0l129.21 0c48.09,0 52.06,84.65 -4.06,84.65l-4.95 0 50.3 51.06 0 0.59 -34.07 0.1 -77.74 -77.69 -1.55 -1.6 1.55 -0 67.18 0c20.05,0 19.53,-29.23 0,-29.23l-79.16 0 -10.86 7.93 -35.85 -35.81z"/>
  </g>
 </g>
</svg>
